<svg xmlns="http://www.w3.org/2000/svg" width="587" height="532" version="1.1"><path fill="#254598" d="M0 0 C193.71 0 387.42 0 587 0 C587 175.56 587 351.12 587 532 C393.29 532 199.58 532 0 532 C0 356.44 0 180.88 0 0 Z" transform="translate(0,0)"/><path fill="#FEFEFE" d="M0 0 C193.71 0 387.42 0 587 0 C587 175.56 587 351.12 587 532 C393.29 532 199.58 532 0 532 C0 356.44 0 180.88 0 0 Z M265.0402832 27.50219727 C258.45201294 32.33874603 250.61534939 35.05398426 242.875 37.4375 C241.9363208 37.73188965 240.9976416 38.0262793 240.03051758 38.32958984 C231.9604388 40.81012773 223.80673834 42.88308818 215.60400391 44.87304688 C209.93391129 46.25084356 204.3286108 47.72776814 198.75 49.4375 C191.17606006 51.75876005 183.50720953 53.62369517 175.8125 55.5 C160.13030952 59.32755762 160.13030952 59.32755762 145.19921875 65.3828125 C136.41035592 69.45711977 128.31825316 69.4438739 118.74291992 69.62915039 C103.59171867 69.99454183 89.52488627 73.08984842 77.8125 83.375 C74.4511376 87.02685051 72.01517506 91.02006426 69.6875 95.375 C69.36177002 95.95556152 69.03604004 96.53612305 68.70043945 97.13427734 C61.0102513 112.610656 62.55542549 132.15148592 62.59316695 148.86811364 C62.59795676 152.45293084 62.58533878 156.03769739 62.57514954 159.62249756 C62.55807351 166.61819453 62.55709733 173.61380126 62.56236244 180.60951363 C62.56642331 186.29740453 62.56493802 191.98526899 62.55961418 197.67315865 C62.55886576 198.48627544 62.55811734 199.29939224 62.55734624 200.13714894 C62.55581461 201.78949328 62.55427626 203.44183763 62.55273127 205.09418196 C62.53904899 220.5378383 62.54441569 235.98144376 62.55591648 251.4250989 C62.56586359 265.53623419 62.55287513 279.64723864 62.52898229 293.75835376 C62.50457598 308.28303972 62.494986 322.80766477 62.50163502 337.33237082 C62.50512136 345.47306828 62.50293285 353.61366497 62.48538399 361.75434685 C62.47064362 368.67722658 62.47005145 375.59993437 62.4874549 382.52281081 C62.49594864 386.05039554 62.49815426 389.57767331 62.48280334 393.10524178 C62.46633684 396.93664507 62.48114393 400.76757807 62.49879456 404.59898376 C62.48918955 405.7024941 62.47958454 406.80600444 62.46968848 407.94295448 C62.5373308 415.09986243 63.52772595 421.63798323 67 428 C73.08916907 433.53299394 79.52959308 434.15125455 87.5058012 434.13422108 C88.6318854 434.13774942 88.6318854 434.13774942 89.78071877 434.14134905 C92.30448521 434.14802327 94.82819997 434.1475813 97.35197449 434.14717102 C99.17645019 434.15047061 101.00092517 434.15419638 102.82539922 434.1583125 C107.84569464 434.16832951 112.86597809 434.17204881 117.88628209 434.17470181 C123.2981658 434.17860567 128.71004005 434.18818386 134.12191772 434.19691467 C147.19377873 434.21667532 160.2656405 434.22674415 173.3375127 434.23564246 C179.49221899 434.24002545 185.64692441 434.24539218 191.80163002 434.25063133 C212.25862417 434.26764214 232.71561778 434.28213708 253.17261791 434.28938007 C258.48104541 434.29128998 263.78947291 434.29321031 269.09790039 434.29516602 C271.07698799 434.29589163 271.07698799 434.29589163 273.09605715 434.2966319 C294.47704763 434.30476447 315.85797893 434.33027757 337.23894533 434.36274669 C359.18625388 434.39580444 381.13353401 434.41382762 403.08086759 434.41702431 C415.40519096 434.41919044 427.72943279 434.4279544 440.05373192 434.45348549 C450.54777168 434.47517478 461.04171009 434.48325154 471.53576972 434.47351871 C476.88990208 434.4689691 482.24382523 434.47089888 487.597929 434.49028015 C492.50137625 434.50787685 497.40446112 434.50694236 502.30791203 434.49138286 C504.07980396 434.48900151 505.85172076 434.49335761 507.62357464 434.50521151 C520.86192673 434.75897062 520.86192673 434.75897062 533 430 C538.08056325 424.82119065 539.12181747 419.7588031 539.13142776 412.60419464 C539.13526891 411.52792045 539.13911005 410.45164626 539.1430676 409.3427577 C539.14176787 407.57793822 539.14176787 407.57793822 539.14044189 405.77746582 C539.14341302 404.52307095 539.14638414 403.26867608 539.1494453 401.97626925 C539.15750207 398.49693178 539.15930412 395.01761497 539.16004276 391.53826928 C539.16189553 387.78498295 539.16944381 384.03170728 539.17617798 380.27842712 C539.18975063 372.07410516 539.19578385 363.86978809 539.20018864 355.66545677 C539.20295186 350.54378023 539.20718927 345.42210557 539.21169281 340.3004303 C539.22388219 326.12192656 539.23418339 311.94342433 539.2375679 297.76491547 C539.23778747 296.85779223 539.23800703 295.95066899 539.23823325 295.01605716 C539.23845153 294.10676593 539.23866981 293.19747469 539.2388947 292.26062918 C539.23933817 290.41805617 539.23978473 288.57548316 539.24023438 286.73291016 C539.2404558 285.81893048 539.24067723 284.90495081 539.24090537 283.96327478 C539.24485625 269.14243589 539.26232059 254.32164609 539.2855939 239.50082618 C539.30929137 224.28728483 539.32176895 209.07376814 539.32293582 193.86020803 C539.32385328 185.31710224 539.32962381 176.77406047 539.34775543 168.23097229 C539.36313451 160.95922964 539.36828975 153.68757081 539.36001733 146.415815 C539.35610353 142.70480934 539.35707591 138.9939726 539.37107468 135.28298759 C539.38610184 131.26271365 539.37796919 127.2428224 539.36749268 123.22253418 C539.37554908 122.04598786 539.38360548 120.86944154 539.39190602 119.6572423 C539.38202126 118.04283101 539.38202126 118.04283101 539.3719368 116.39580536 C539.37253389 115.46782119 539.37313097 114.53983703 539.37374616 113.58373213 C538.87844292 110.15966781 537.4608599 107.4608599 535 105 C526.41647934 104.26043732 518.70695816 105.68679013 510.4375 107.8125 C507.79787558 108.45898038 505.15757648 109.10148415 502.515625 109.73828125 C501.79223434 109.91356354 501.06884369 110.08884583 500.3235321 110.2694397 C489.4887534 112.87365895 478.58303651 115.16642413 467.6875 117.5 C466.58722473 117.73575745 465.48694946 117.97151489 464.35333252 118.2144165 C459.97674873 119.15181383 455.60006855 120.08875152 451.22293091 121.02355957 C445.50725013 122.24500688 439.79428535 123.47757563 434.08543396 124.7305603 C431.02480732 125.40194746 427.96291634 126.06743655 424.90078735 126.73193359 C423.52986243 127.03100515 422.15953626 127.33283731 420.78988647 127.63769531 C407.1079059 130.68028173 407.1079059 130.68028173 401 130 C398.22123866 125.831858 398.61664217 122.14447369 398.44140625 117.2265625 C397.8108541 112.61739372 395.69147263 108.87114538 392 106 C387.87997938 104.39339085 384.41760559 103.75267265 380.0078125 103.7265625 C378.89019531 103.7059375 377.77257812 103.6853125 376.62109375 103.6640625 C374.29825054 103.63810894 371.97530843 103.61982703 369.65234375 103.609375 C357.2309916 103.35208577 350.53198333 98.88926907 342 90 C334.40991623 80.61184607 332.62389467 72.57907972 333.0625 60.75 C333.27417682 47.67801119 332.00492478 38.34417387 323.19921875 28.1875 C319.78200145 24.78849168 316.23472805 22.28133497 312 20 C310.91332031 19.38125 310.91332031 19.38125 309.8046875 18.75 C293.6260177 10.85261542 278.08556201 16.99406965 265.0402832 27.50219727 Z" transform="translate(0,0)"/><path fill="#EE3236" d="M0 0 C7.78030441 5.60136285 13.34271738 12.07148943 15.60546875 21.53125 C16.50895726 27.18476226 16.48207485 32.14919179 14.5 37.5625 C12.52322595 42.9656824 12.1480088 47.33042758 13.9375 52.9375 C16.45676075 56.67822051 19.48892368 59.52213241 22.734375 62.63671875 C24.86999488 64.86439121 26.44143433 67.01080894 28.0625 69.625 C32.86357055 77.1827292 39.37616001 82.43058679 48 85 C52.58584778 85.50076767 57.14010657 85.5149834 61.75 85.5 C64.14063539 85.49232951 66.53140545 85.50206558 68.921875 85.53125 C69.96956055 85.52673828 71.01724609 85.52222656 72.09667969 85.51757812 C75.72015063 86.11966176 77.37753046 87.4819599 80 90 C81.92046336 93.84092673 81.3651877 99.04885911 81.5234375 103.30078125 C82.01256294 107.09751726 82.50459163 109.11057978 85 112 C95.35962325 115.20825703 109.27184719 109.49948253 119.28613281 106.93701172 C126.02681762 105.23633145 132.79498056 103.65236008 139.5625 102.0625 C140.27670105 101.89406586 140.9909021 101.72563171 141.72674561 101.55209351 C153.72999877 98.72245426 165.762846 96.04638247 177.81835938 93.44921875 C186.43258696 91.58691716 195.01374242 89.62325888 203.5480957 87.42114258 C208.10060417 86.28579462 212.28806955 85.36080655 217 86 C219.73115708 87.9925218 221.67253073 89.59323697 222.46277237 92.98800659 C222.65198909 95.45700235 222.67551769 97.88124636 222.64697266 100.35742188 C222.66011505 101.76096924 222.66011505 101.76096924 222.67352295 103.19287109 C222.69551952 106.28530341 222.68095333 109.37630313 222.6640625 112.46875 C222.66743281 114.62764763 222.67228723 116.78654341 222.67855835 118.94543457 C222.68593196 123.47487415 222.67521646 128.00382087 222.65185547 132.53320312 C222.62350445 138.30871058 222.63968208 144.08304924 222.66971779 149.85851288 C222.68789428 154.32157996 222.68198314 158.78437597 222.66907883 163.24745178 C222.66576623 165.374681 222.66975547 167.50193563 222.68147659 169.62913513 C222.74285159 183.91073587 222.25461778 196.7088107 212.7265625 208.2890625 C203.24900146 217.68085375 192.00146788 220.13855946 179.03271484 220.15771484 C178.26919205 220.16279556 177.50566925 220.16787628 176.7190094 220.17311096 C175.07343029 220.18374975 173.42783731 220.19239494 171.78223801 220.19923019 C169.17584613 220.21109727 166.5696142 220.23056596 163.96328735 220.25234985 C156.55728463 220.31373022 149.15130406 220.36808637 141.74511719 220.40136719 C137.2046516 220.42231334 132.66448805 220.45760369 128.1241951 220.50212479 C126.39788997 220.51627153 124.67153153 220.52500423 122.94517136 220.52817917 C120.53262396 220.53308934 118.12088007 220.55624519 115.70849609 220.58349609 C114.99876144 220.58048996 114.28902679 220.57748383 113.55778503 220.5743866 C109.20856791 220.64732326 106.48270276 221.37545205 103 224 C100.42715711 227.43825368 100.72057168 231.30978375 100.625 235.4375 C100.16836593 245.97020468 98.17402052 256.90145651 90.40234375 264.578125 C82.27657329 271.93596551 74.8242072 273.22771903 64.12890625 273.16796875 C61 273 61 273 57.5625 272 C50.10204359 269.9058368 41.98016652 270.45391902 34.4375 272 C24.83508096 273.95159621 15.48146047 274.45581613 7 269 C-1.82299187 262.67498768 -6.98702302 254.67877149 -9 244 C-9.33843355 240.12991286 -9.55863949 236.30039078 -9.69140625 232.41796875 C-9.98777608 229.13539155 -10.45608575 226.89548901 -12 224 C-17.48962541 220.34024973 -23.26128461 220.84193033 -29.65209961 220.82299805 C-30.61854904 220.81642685 -31.58499847 220.80985565 -32.58073425 220.80308533 C-35.77127159 220.78341213 -38.96176209 220.77170556 -42.15234375 220.76171875 C-43.24352571 220.75764322 -44.33470768 220.7535677 -45.45895576 220.74936867 C-51.23004083 220.72853753 -57.0011023 220.71422072 -62.7722168 220.70483398 C-68.73202212 220.69375118 -74.69145598 220.65932101 -80.65112972 220.61966228 C-85.23650307 220.59353114 -89.8217872 220.58514545 -94.40722847 220.58155251 C-96.60446251 220.57668072 -98.80169242 220.56504999 -100.99885368 220.54651451 C-104.07237265 220.522189 -107.14492027 220.52307581 -110.21850586 220.5300293 C-111.12415283 220.51721924 -112.0297998 220.50440918 -112.96289062 220.49121094 C-118.47047269 220.53660735 -121.64136079 221.30716185 -126 225 C-128.67940024 228.49560409 -129.27508317 230.84184131 -129.25 235.1875 C-129.99909874 247.29293569 -135.46993511 260.34979335 -144 269 C-144.886875 269.928125 -145.77375 270.85625 -146.6875 271.8125 C-157.72323184 279.10024744 -170.66117349 279.21662962 -183.4375 279.3125 C-184.72205078 279.34150391 -186.00660156 279.37050781 -187.33007812 279.40039062 C-200.67986803 279.48980189 -200.67986803 279.48980189 -206 275 C-209.75914208 270.03971193 -209.42909129 264.78250423 -209.3125 258.8125 C-209.3012207 257.87720459 -209.28994141 256.94190918 -209.27832031 255.97827148 C-208.9245898 238.14435829 -208.9245898 238.14435829 -203 231 C-202.2575 230.319375 -201.515 229.63875 -200.75 228.9375 C-198.73091409 227.09181747 -198.73091409 227.09181747 -198.75 224.25 C-198.8325 223.5075 -198.915 222.765 -199 222 C-203.01137149 219.98534027 -207.02509245 217.98099568 -211.0703125 216.03515625 C-212.421875 215.37760417 -213.7734375 214.72005208 -215.125 214.0625 C-215.80175781 213.74087891 -216.47851562 213.41925781 -217.17578125 213.08789062 C-229.48156619 207.05400962 -236.34783113 196.88900645 -241.08984375 184.23828125 C-242.88397235 177.8548795 -243.15074146 171.44476867 -243.16113281 164.84667969 C-243.16609772 164.07474777 -243.17106262 163.30281586 -243.17617798 162.50749207 C-243.19066337 159.97894364 -243.19757854 157.45045793 -243.203125 154.921875 C-243.20595238 154.05055183 -243.20877975 153.17922867 -243.21169281 152.28150177 C-243.22662982 147.67057498 -243.235894 143.05967903 -243.24023438 138.44873047 C-243.24571181 133.71714225 -243.26974033 128.98584281 -243.29820633 124.25434494 C-243.31694324 120.58747563 -243.32204415 116.9206744 -243.32357025 113.25376129 C-243.32657226 111.51086091 -243.33451649 109.76796102 -243.34775543 108.02510834 C-243.46445657 91.48193315 -241.52232568 75.76465333 -229.6875 63.0625 C-222.74225932 56.81488394 -215.00778429 53.19663512 -206 51 C-205.39430176 50.83266357 -204.78860352 50.66532715 -204.16455078 50.49291992 C-201.80583082 49.95578304 -199.55351726 49.7409444 -197.140625 49.5703125 C-196.19775635 49.49901123 -195.2548877 49.42770996 -194.28344727 49.35424805 C-193.28240967 49.27859619 -192.28137207 49.20294434 -191.25 49.125 C-173.77686903 47.68128886 -157.73666583 43.85174644 -141.25390625 37.9453125 C-121.59440208 31.01998802 -101.60366978 25.91321748 -81.35522461 20.99829102 C-58.58653062 15.52996376 -58.58653062 15.52996376 -38.50390625 3.8984375 C-27.10046355 -4.74754246 -12.8948312 -7.74107181 0 0 Z" transform="translate(311,26)"/><path fill="#FDFCFC" d="M0 0 C7.78030441 5.60136285 13.34271738 12.07148943 15.60546875 21.53125 C16.50895726 27.18476226 16.48207485 32.14919179 14.5 37.5625 C12.52322595 42.9656824 12.1480088 47.33042758 13.9375 52.9375 C16.45676075 56.67822051 19.48892368 59.52213241 22.734375 62.63671875 C24.86999488 64.86439121 26.44143433 67.01080894 28.0625 69.625 C32.86357055 77.1827292 39.37616001 82.43058679 48 85 C52.58584778 85.50076767 57.14010657 85.5149834 61.75 85.5 C64.14063539 85.49232951 66.53140545 85.50206558 68.921875 85.53125 C69.96956055 85.52673828 71.01724609 85.52222656 72.09667969 85.51757812 C75.72015063 86.11966176 77.37753046 87.4819599 80 90 C81.92046336 93.84092673 81.3651877 99.04885911 81.5234375 103.30078125 C82.01256294 107.09751726 82.50459163 109.11057978 85 112 C95.35962325 115.20825703 109.27184719 109.49948253 119.28613281 106.93701172 C126.02681762 105.23633145 132.79498056 103.65236008 139.5625 102.0625 C140.27670105 101.89406586 140.9909021 101.72563171 141.72674561 101.55209351 C153.72999877 98.72245426 165.762846 96.04638247 177.81835938 93.44921875 C186.43258696 91.58691716 195.01374242 89.62325888 203.5480957 87.42114258 C208.10060417 86.28579462 212.28806955 85.36080655 217 86 C219.73115708 87.9925218 221.67253073 89.59323697 222.46277237 92.98800659 C222.65198909 95.45700235 222.67551769 97.88124636 222.64697266 100.35742188 C222.66011505 101.76096924 222.66011505 101.76096924 222.67352295 103.19287109 C222.69551952 106.28530341 222.68095333 109.37630313 222.6640625 112.46875 C222.66743281 114.62764763 222.67228723 116.78654341 222.67855835 118.94543457 C222.68593196 123.47487415 222.67521646 128.00382087 222.65185547 132.53320312 C222.62350445 138.30871058 222.63968208 144.08304924 222.66971779 149.85851288 C222.68789428 154.32157996 222.68198314 158.78437597 222.66907883 163.24745178 C222.66576623 165.374681 222.66975547 167.50193563 222.68147659 169.62913513 C222.74285159 183.91073587 222.25461778 196.7088107 212.7265625 208.2890625 C203.24900146 217.68085375 192.00146788 220.13855946 179.03271484 220.15771484 C178.26919205 220.16279556 177.50566925 220.16787628 176.7190094 220.17311096 C175.07343029 220.18374975 173.42783731 220.19239494 171.78223801 220.19923019 C169.17584613 220.21109727 166.5696142 220.23056596 163.96328735 220.25234985 C156.55728463 220.31373022 149.15130406 220.36808637 141.74511719 220.40136719 C137.2046516 220.42231334 132.66448805 220.45760369 128.1241951 220.50212479 C126.39788997 220.51627153 124.67153153 220.52500423 122.94517136 220.52817917 C120.53262396 220.53308934 118.12088007 220.55624519 115.70849609 220.58349609 C114.99876144 220.58048996 114.28902679 220.57748383 113.55778503 220.5743866 C109.20856791 220.64732326 106.48270276 221.37545205 103 224 C100.42715711 227.43825368 100.72057168 231.30978375 100.625 235.4375 C100.16836593 245.97020468 98.17402052 256.90145651 90.40234375 264.578125 C82.27657329 271.93596551 74.8242072 273.22771903 64.12890625 273.16796875 C61 273 61 273 57.5625 272 C50.10204359 269.9058368 41.98016652 270.45391902 34.4375 272 C24.83508096 273.95159621 15.48146047 274.45581613 7 269 C-1.82299187 262.67498768 -6.98702302 254.67877149 -9 244 C-9.33843355 240.12991286 -9.55863949 236.30039078 -9.69140625 232.41796875 C-9.98777608 229.13539155 -10.45608575 226.89548901 -12 224 C-17.48962541 220.34024973 -23.26128461 220.84193033 -29.65209961 220.82299805 C-30.61854904 220.81642685 -31.58499847 220.80985565 -32.58073425 220.80308533 C-35.77127159 220.78341213 -38.96176209 220.77170556 -42.15234375 220.76171875 C-43.24352571 220.75764322 -44.33470768 220.7535677 -45.45895576 220.74936867 C-51.23004083 220.72853753 -57.0011023 220.71422072 -62.7722168 220.70483398 C-68.73202212 220.69375118 -74.69145598 220.65932101 -80.65112972 220.61966228 C-85.23650307 220.59353114 -89.8217872 220.58514545 -94.40722847 220.58155251 C-96.60446251 220.57668072 -98.80169242 220.56504999 -100.99885368 220.54651451 C-104.07237265 220.522189 -107.14492027 220.52307581 -110.21850586 220.5300293 C-111.12415283 220.51721924 -112.0297998 220.50440918 -112.96289062 220.49121094 C-118.47047269 220.53660735 -121.64136079 221.30716185 -126 225 C-128.67940024 228.49560409 -129.27508317 230.84184131 -129.25 235.1875 C-129.99909874 247.29293569 -135.46993511 260.34979335 -144 269 C-144.886875 269.928125 -145.77375 270.85625 -146.6875 271.8125 C-157.72323184 279.10024744 -170.66117349 279.21662962 -183.4375 279.3125 C-184.72205078 279.34150391 -186.00660156 279.37050781 -187.33007812 279.40039062 C-200.67986803 279.48980189 -200.67986803 279.48980189 -206 275 C-209.75914208 270.03971193 -209.42909129 264.78250423 -209.3125 258.8125 C-209.3012207 257.87720459 -209.28994141 256.94190918 -209.27832031 255.97827148 C-208.9245898 238.14435829 -208.9245898 238.14435829 -203 231 C-202.2575 230.319375 -201.515 229.63875 -200.75 228.9375 C-198.73091409 227.09181747 -198.73091409 227.09181747 -198.75 224.25 C-198.8325 223.5075 -198.915 222.765 -199 222 C-203.01137149 219.98534027 -207.02509245 217.98099568 -211.0703125 216.03515625 C-212.421875 215.37760417 -213.7734375 214.72005208 -215.125 214.0625 C-215.80175781 213.74087891 -216.47851562 213.41925781 -217.17578125 213.08789062 C-229.48156619 207.05400962 -236.34783113 196.88900645 -241.08984375 184.23828125 C-242.88397235 177.8548795 -243.15074146 171.44476867 -243.16113281 164.84667969 C-243.16609772 164.07474777 -243.17106262 163.30281586 -243.17617798 162.50749207 C-243.19066337 159.97894364 -243.19757854 157.45045793 -243.203125 154.921875 C-243.20595238 154.05055183 -243.20877975 153.17922867 -243.21169281 152.28150177 C-243.22662982 147.67057498 -243.235894 143.05967903 -243.24023438 138.44873047 C-243.24571181 133.71714225 -243.26974033 128.98584281 -243.29820633 124.25434494 C-243.31694324 120.58747563 -243.32204415 116.9206744 -243.32357025 113.25376129 C-243.32657226 111.51086091 -243.33451649 109.76796102 -243.34775543 108.02510834 C-243.46445657 91.48193315 -241.52232568 75.76465333 -229.6875 63.0625 C-222.74225932 56.81488394 -215.00778429 53.19663512 -206 51 C-205.39430176 50.83266357 -204.78860352 50.66532715 -204.16455078 50.49291992 C-201.80583082 49.95578304 -199.55351726 49.7409444 -197.140625 49.5703125 C-196.19775635 49.49901123 -195.2548877 49.42770996 -194.28344727 49.35424805 C-193.28240967 49.27859619 -192.28137207 49.20294434 -191.25 49.125 C-173.77686903 47.68128886 -157.73666583 43.85174644 -141.25390625 37.9453125 C-121.59440208 31.01998802 -101.60366978 25.91321748 -81.35522461 20.99829102 C-58.58653062 15.52996376 -58.58653062 15.52996376 -38.50390625 3.8984375 C-27.10046355 -4.74754246 -12.8948312 -7.74107181 0 0 Z M-80.9921875 40.00390625 C-87.06242712 42.05815811 -93.19637302 43.80444514 -99.375 45.5 C-101.46102698 46.07780206 -103.54696407 46.65592871 -105.6328125 47.234375 C-106.6734082 47.52248047 -107.71400391 47.81058594 -108.78613281 48.10742188 C-114.28037313 49.63332149 -119.76790143 51.18105768 -125.25 52.75 C-126.25595215 53.03166016 -127.2619043 53.31332031 -128.29833984 53.60351562 C-136.85250707 55.94769015 -136.85250707 55.94769015 -143 62 C-143.24471079 66.73923225 -142.48329029 70.95287105 -140.5 75.25 C-133.12031127 83.36765761 -123.17443951 86.60852016 -113 90 C-110.9416591 94.53090267 -110.71283153 98.85064578 -110.74121094 103.74609375 C-110.7377063 104.49811066 -110.73420166 105.25012756 -110.73059082 106.02493286 C-110.7218316 108.49588415 -110.72760199 110.9665461 -110.734375 113.4375 C-110.73302668 115.16333063 -110.73108475 116.8891609 -110.72857666 118.61499023 C-110.72563327 122.22611113 -110.72989776 125.83713285 -110.73925781 129.44824219 C-110.75065188 134.06833287 -110.7440882 138.68819115 -110.73211288 143.30827332 C-110.72487308 146.87025695 -110.72719195 150.43218583 -110.73236847 153.99417114 C-110.7336991 155.69735746 -110.73207787 157.40054881 -110.72740936 159.10372925 C-110.72230921 161.48725485 -110.73010308 163.87040824 -110.74121094 166.25390625 C-110.73716248 166.95226593 -110.73311401 167.65062561 -110.72894287 168.37014771 C-110.76536641 172.6061408 -111.33259022 176.09658079 -113 180 C-117.25202818 182.82923413 -122.55713644 182.36743053 -127.5 182.375 C-128.34175781 182.39949219 -129.18351562 182.42398438 -130.05078125 182.44921875 C-134.11682838 182.46842842 -136.41561413 182.34909366 -139.96875 180.2265625 C-143.97887938 175.83084376 -144.28876641 172.17480587 -144.25537109 166.36083984 C-144.25899155 165.59603302 -144.262612 164.8312262 -144.26634216 164.04324341 C-144.27322735 162.38452724 -144.27574324 160.72578847 -144.27439499 159.06705856 C-144.2734277 156.43425029 -144.28639822 153.80184803 -144.30337524 151.1690979 C-144.34957013 143.68421623 -144.37422687 136.1993748 -144.38085938 128.71435547 C-144.38589844 124.13190851 -144.41027395 119.54988274 -144.44618607 114.96757889 C-144.45593348 113.22864954 -144.45834386 111.48966185 -144.45301437 109.75071335 C-144.4136663 96.27311052 -145.71351334 86.34705823 -155.3828125 76.265625 C-166.5949131 66.55962747 -180.70504209 64.99150913 -195 66 C-205.57924718 67.53341098 -215.07766409 71.62877729 -221.7578125 80.21484375 C-226.9762285 87.71426549 -229.30699046 94.75972274 -229.2746582 103.94799805 C-229.27976913 104.71003036 -229.28488007 105.47206268 -229.29014587 106.25718689 C-229.30396422 108.75877905 -229.30309028 111.26009311 -229.30078125 113.76171875 C-229.30467385 115.51658732 -229.30900967 117.27145497 -229.31376648 119.02632141 C-229.3212131 122.70044001 -229.32094977 126.37446252 -229.31567383 130.04858398 C-229.30989646 134.72754202 -229.32677574 139.40610198 -229.3500185 144.08499432 C-229.36484723 147.70984652 -229.36561494 151.33460502 -229.36250877 154.95948219 C-229.36301791 156.68283689 -229.36817793 158.4061974 -229.37832069 160.12952232 C-229.50798978 179.72594 -229.50798978 179.72594 -220.5390625 196.61328125 C-213.06730489 203.6816341 -203.13103951 205.62742777 -193.41796875 207.97265625 C-190.18091696 208.94562153 -187.83350889 210.20425738 -185 212 C-184.34 212 -183.68 212 -183 212 C-179.67230655 219.48731027 -180.00364495 227.89691707 -182.5625 235.5625 C-184.19651569 239.66530027 -186.3278083 243.10744197 -188.8125 246.75 C-191.15137758 250.27592082 -191.97595721 251.62132608 -192.25 255.9375 C-190.51105722 260.19790981 -188.03727624 261.98136188 -184 264 C-172.78133671 264.75037112 -163.04735723 264.61319848 -153.625 257.75 C-150.47333783 254.44825867 -148.67621822 251.21340308 -147 247 C-146.64421875 246.15050781 -146.2884375 245.30101562 -145.921875 244.42578125 C-144.6405355 239.66419338 -144.61177642 235.03658754 -144.5 230.125 C-144.13723501 214.31271427 -144.13723501 214.31271427 -140.75 209.0625 C-136.80020832 206.66441219 -131.78386723 206.87425406 -127.2792635 206.86692142 C-126.15593091 206.86268038 -125.03259833 206.85843933 -123.87522537 206.85406977 C-122.65121133 206.8544559 -121.42719729 206.85484203 -120.16609192 206.85523987 C-118.85790629 206.85171302 -117.54972065 206.84818618 -116.20189303 206.84455246 C-112.57677914 206.83487791 -108.951681 206.83130781 -105.32655609 206.82870948 C-101.41434154 206.82480829 -97.50214081 206.81517124 -93.5899353 206.80615234 C-86.81127517 206.79122444 -80.03261614 206.77967488 -73.2539463 206.77020454 C-63.44116279 206.75631729 -53.6284049 206.735127 -43.81563982 206.71177601 C-27.878971 206.67386704 -11.94229755 206.63890151 3.99438477 206.60717773 C4.94809368 206.60527724 5.9018026 206.60337675 6.88441179 206.60141867 C20.41237968 206.57459896 33.94035117 206.5507207 47.46832655 206.52803367 C48.42051951 206.52643637 49.37271247 206.52483906 50.35375977 206.52319336 C51.30478957 206.52159989 52.25581937 206.52000643 53.23566826 206.51836468 C69.10695441 206.49157427 84.97821324 206.45716557 100.84946996 206.41653961 C110.6338731 206.39179936 120.4182469 206.37345326 130.20267633 206.363384 C136.91149509 206.35597873 143.62027441 206.34143089 150.32906701 206.32131977 C154.19672046 206.30995812 158.0643104 206.30179236 161.93198204 206.30232811 C166.13178647 206.30283752 170.33140065 206.28797766 174.53117371 206.27174377 C175.74403413 206.27436063 176.95689456 206.27697748 178.20650834 206.27967364 C189.76257663 206.2100264 199.04087082 205.68196038 207.6875 197.4375 C214.38083312 188.75155958 213.43093914 176.70262602 213.36328125 166.31640625 C213.36276146 164.7274526 213.36328374 163.13849831 213.36479187 161.54954529 C213.36470277 158.24232206 213.35439328 154.93534577 213.33618164 151.62817383 C213.3133658 147.3925104 213.31298043 143.15720265 213.31969929 138.92149448 C213.32303943 135.6503941 213.31641049 132.37937473 213.30657005 129.10828972 C213.30272831 127.54580038 213.30156558 125.98330204 213.3031559 124.42080879 C213.30352694 122.24333575 213.2909002 120.06632024 213.2746582 117.88891602 C213.26774712 116.03339867 213.26774712 116.03339867 213.26069641 114.14039612 C213.0122434 111.14748621 212.63742447 109.47887648 211 107 C207.54474048 104.4405485 204.17231485 104.6523071 200 105 C189.92709568 107.26126423 182.43944103 114.54943982 177 123 C175.75694651 125.48610697 175.84857796 127.20298477 175.81054688 129.98461914 C175.79382935 131.02231949 175.77711182 132.06001984 175.7598877 133.12916565 C175.74631226 134.25314255 175.73273682 135.37711945 175.71875 136.53515625 C175.69113586 138.2586454 175.69113586 138.2586454 175.66296387 140.01695251 C175.58404894 144.95041322 175.51639659 149.88401433 175.44775391 154.81762695 C175.39617265 158.41104193 175.33887101 162.00433389 175.28125 165.59765625 C175.26767456 166.72365738 175.25409912 167.84965851 175.2401123 169.00978088 C175.22339478 170.04432907 175.20667725 171.07887726 175.18945312 172.14477539 C175.17692505 173.06029678 175.16439697 173.97581818 175.15148926 174.91908264 C175 177 175 177 174 178 C172.00041636 178.04080783 169.99954746 178.04254356 168 178 C167.98382629 177.31983826 167.96765259 176.63967651 167.95098877 175.93890381 C167.77899407 168.86556655 167.57999584 161.79335672 167.36523438 154.72119141 C167.28862485 152.08108439 167.21892414 149.44076755 167.15625 146.80029297 C167.06501045 143.00672363 166.94901896 139.21460067 166.828125 135.421875 C166.79347137 133.64825592 166.79347137 133.64825592 166.75811768 131.83880615 C166.69850861 130.1875473 166.69850861 130.1875473 166.63769531 128.50292969 C166.5977243 127.05064972 166.5977243 127.05064972 166.5569458 125.56903076 C165.84361497 122.27864086 164.60697903 121.07384573 162 119 C155.03283424 116.90985027 148.80247159 118.97649824 142.5703125 122.29296875 C137.24837751 125.63485722 131.01849915 129.84958402 129.44033813 136.28063965 C129.22985188 138.88794905 129.19497545 141.43917185 129.23046875 144.0546875 C129.21913406 144.99684113 129.20779938 145.93899475 129.19612122 146.90969849 C129.16553322 149.89870209 129.17521798 152.88589395 129.1875 155.875 C129.17334289 158.88494464 129.15102293 161.89470503 129.12532043 164.90457153 C129.11224852 166.77308181 129.10754632 168.64167237 129.11186218 170.51022339 C129.10745307 176.89254693 129.10745307 176.89254693 128 178 C126.00041636 178.04080783 123.99954746 178.04254356 122 178 C121.97812622 176.17625854 121.97812622 176.17625854 121.95581055 174.31567383 C121.89774902 169.79600922 121.8205164 165.27683873 121.73754883 160.75756836 C121.70433646 158.80322298 121.67629305 156.84878253 121.65356445 154.89428711 C121.61995067 152.08145718 121.56763146 149.26949553 121.51171875 146.45703125 C121.50213387 145.15050346 121.50213387 145.15050346 121.49235535 143.81758118 C121.36705014 138.62364671 120.85746846 134.85746846 117 131 C107.57260172 130.23996169 96.2658321 130.38959939 88.375 136.3125 C81.29476288 144.32434727 82.72866365 157.39910704 82.48242188 167.45898438 C82.44826172 168.49732422 82.41410156 169.53566406 82.37890625 170.60546875 C82.3538501 171.54543701 82.32879395 172.48540527 82.30297852 173.45385742 C81.99221176 176.06545007 81.32245766 177.74762212 80 180 C77.125 180.1875 77.125 180.1875 74 180 C71.68901071 176.53351606 71.75373626 175.22509889 71.76049805 171.13916016 C71.75676682 169.93425934 71.75303558 168.72935852 71.74919128 167.48794556 C71.75332535 166.18481415 71.75745941 164.88168274 71.76171875 163.5390625 C71.75569923 162.18768541 71.74809268 160.83631453 71.7389679 159.48495483 C71.70186832 153.74808211 71.68329155 148.01140341 71.69458008 142.27441406 C71.70044193 138.76284358 71.6821197 135.25207918 71.64869118 131.74067307 C71.63690041 129.75712286 71.65206398 127.77347154 71.66764832 125.78994751 C71.88251686 118.65991499 71.88251686 118.65991499 68.58520508 112.70458984 C63.46995784 109.33178257 59.20249316 109.78070832 53.1875 109.75 C52.18912109 109.729375 51.19074219 109.70875 50.16210938 109.6875 C43.04263795 109.56180434 43.04263795 109.56180434 37 113 C33.97727663 116.28489467 33.61403016 118.544329 33.56762695 122.96191406 C33.53793571 124.76332855 33.53793571 124.76332855 33.50764465 126.60113525 C33.50125473 127.89291687 33.49486481 129.18469849 33.48828125 130.515625 C33.47142992 131.85513961 33.45327906 133.19463846 33.43388367 134.53411865 C33.38642604 138.05215527 33.35658972 141.57012795 33.33044434 145.08837891 C33.30061711 148.68144355 33.2540943 152.27428797 33.20898438 155.8671875 C33.12299989 162.9113322 33.05563322 169.95554492 33 177 C31.34385343 177.38218767 29.67542976 177.71395102 28 178 C26.09145773 176.09145773 26.84615165 172.57604409 26.84228516 169.97680664 C26.83720444 169.24169861 26.83212372 168.50659058 26.82688904 167.74920654 C26.81615916 166.14609546 26.80754932 164.54296916 26.80076981 162.9398365 C26.78899493 160.39555659 26.76954082 157.85144753 26.74765015 155.30723572 C26.6860225 148.07068659 26.63218275 140.83414996 26.59863281 133.59741211 C26.57757218 129.17406503 26.54216641 124.75102116 26.49787521 120.32784843 C26.48379098 118.64754266 26.47501004 116.96718314 26.47182083 115.28682137 C26.44206849 101.09763014 25.05361147 89.95446286 15.25390625 79.05859375 C5.0514455 69.23792987 -7.64128133 67.7084686 -21.21875 67.85546875 C-32.6822878 68.29364117 -42.31888965 71.34902067 -50.875 79.3125 C-56.64207102 85.55091817 -60.08009058 92.45603142 -60.17700195 100.96118164 C-60.18983719 101.94643326 -60.20267242 102.93168488 -60.21589661 103.9467926 C-60.22328354 105.00720261 -60.23067047 106.06761261 -60.23828125 107.16015625 C-60.25038887 108.81053139 -60.25038887 108.81053139 -60.26274109 110.49424744 C-60.2765694 112.82516918 -60.28729715 115.15611107 -60.29516602 117.48706055 C-60.30666154 119.85821512 -60.32707448 122.22934431 -60.35668945 124.6003418 C-60.39961027 128.03712449 -60.4155718 131.47313792 -60.42578125 134.91015625 C-60.45204338 136.47951683 -60.45204338 136.47951683 -60.47883606 138.08058167 C-60.45064785 147.78620592 -58.00302437 157.87160179 -51 165 C-42.94316734 171.73844186 -33.2192609 174.58265625 -23.19140625 177.09375 C-20.47374926 178.21762954 -19.01832615 179.89465652 -17 182 C-24.02901938 182.12683815 -31.0577434 182.21436744 -38.08764648 182.2746582 C-40.47870919 182.29979315 -42.86969514 182.33390633 -45.26049805 182.37719727 C-48.69859764 182.43789061 -52.13568096 182.46622072 -55.57421875 182.48828125 C-56.64210129 182.51408768 -57.70998383 182.5398941 -58.81022644 182.56648254 C-66.23425107 182.56928442 -66.23425107 182.56928442 -70.15161133 179.65698242 C-73.18122163 175.30204266 -73.15036149 171.55523345 -73.15771484 166.44262695 C-73.16279556 165.67475357 -73.16787628 164.90688019 -73.17311096 164.11573792 C-73.18381083 162.44772291 -73.19243252 160.77969357 -73.19923019 159.1116581 C-73.21103267 156.46695632 -73.23049081 153.82241684 -73.25234985 151.17778015 C-73.31390755 143.65804491 -73.36792523 136.13832518 -73.40136719 128.6184082 C-73.42237711 124.01770537 -73.45773438 119.41729693 -73.50212479 114.81676292 C-73.51623878 113.06781683 -73.52499678 111.31881864 -73.52817917 109.5698185 C-73.53311834 107.11435035 -73.55635373 104.65965527 -73.58349609 102.2043457 C-73.58048996 101.48976196 -73.57748383 100.77517822 -73.5743866 100.03894043 C-73.6720038 94.05681813 -75.03828282 88.74739232 -78.55078125 83.828125 C-83.85506682 79.0766142 -89.24928739 77.40261283 -96.12109375 75.7265625 C-99 75 -99 75 -100 74 C-100.04080783 72.00041636 -100.04254356 69.99954746 -100 68 C-95.43316622 66.38078304 -90.86566954 64.76345348 -86.29760742 63.14770508 C-84.75088429 62.60034397 -83.20432855 62.05250957 -81.65795898 61.50415039 C-79.40655076 60.70587728 -77.15456307 59.90926288 -74.90234375 59.11328125 C-73.78755142 58.71835983 -73.78755142 58.71835983 -72.65023804 58.31546021 C-69.00432877 57.03063461 -65.35256089 55.7785814 -61.67236328 54.59521484 C-60.98993057 54.37463913 -60.30749786 54.15406342 -59.60438538 53.92680359 C-57.75222038 53.33253424 -55.89684312 52.74830297 -54.04125977 52.16479492 C-51.17569315 51.06729004 -49.20168392 50.12408277 -47 48 C-46.26924515 43.69666589 -46.7635593 41.48163845 -48.6875 37.5625 C-51.34984789 34.85626725 -53.70096219 34.43203782 -57.4375 34.1875 C-65.70248422 34.57709522 -73.21131937 37.36328106 -80.9921875 40.00390625 Z" transform="translate(311,26)"/><path fill="#FDFDFE" d="M0 0 C2.90958333 2.8419186 4.89953789 5.28175293 5.14044189 9.40203857 C5.1506839 10.91377655 5.1506839 10.91377655 5.16113281 12.45605469 C5.17074036 13.59774109 5.1803479 14.73942749 5.19024658 15.91571045 C5.19449646 17.15524475 5.19874634 18.39477905 5.203125 19.671875 C5.20882507 20.94218567 5.21452515 22.21249634 5.22039795 23.52130127 C5.22985998 26.21475814 5.2367503 28.90810326 5.24023438 31.6015625 C5.24570626 35.04256701 5.26970519 38.48317323 5.29820633 41.92405319 C5.32138894 45.21496344 5.32328678 48.50589454 5.328125 51.796875 C5.3404718 53.02831238 5.3528186 54.25974976 5.36553955 55.52850342 C5.33762727 66.26423969 5.33762727 66.26423969 2 71 C0.16796875 72.390625 0.16796875 72.390625 -1.8125 73.25 C-2.45832031 73.54390625 -3.10414063 73.8378125 -3.76953125 74.140625 C-4.50558594 74.42421875 -5.24164062 74.7078125 -6 75 C-6.9178125 75.3609375 -7.835625 75.721875 -8.78125 76.09375 C-17.94883785 78.67491551 -32.64594128 78.39575344 -41.20463562 73.8217926 C-44.65752542 71.23481999 -46.68537275 69.28698951 -47.72988892 65.01437378 C-48.01036232 61.30762686 -48.03016747 57.68155879 -47.95703125 53.96484375 C-47.95479797 52.59916859 -47.95539026 51.23348617 -47.95866394 49.86781311 C-47.95692689 47.01513789 -47.92798641 44.16448792 -47.87817383 41.31225586 C-47.81574204 37.66788915 -47.81090953 34.02627695 -47.8251543 30.38149166 C-47.83158451 27.5647361 -47.8127623 24.74859615 -47.78589439 21.93197823 C-47.76982743 19.9390812 -47.770597 17.94607124 -47.77168274 15.95310974 C-47.56164413 5.89657073 -47.56164413 5.89657073 -44.57861328 2.20654297 C-42.34741166 0.29728333 -40.82757474 -0.93604482 -38.0625 -1.8125 C-37.12083984 -2.13154297 -37.12083984 -2.13154297 -36.16015625 -2.45703125 C-24.39034879 -5.41544578 -10.98776381 -5.62964505 0 0 Z" transform="translate(522,335)"/><path fill="#2450A2" d="M0 0 C8.58 0 17.16 0 26 0 C27.2375 3.073125 28.475 6.14625 29.75 9.3125 C30.32186035 10.72849487 30.32186035 10.72849487 30.90527344 12.1730957 C31.22012695 12.95773193 31.53498047 13.74236816 31.859375 14.55078125 C32.33068848 15.72120972 32.33068848 15.72120972 32.81152344 16.9152832 C34.61031185 21.5840777 36.29014768 26.29790612 38 31 C38.33 20.77 38.66 10.54 39 0 C44.94 0 50.88 0 57 0 C57 24.09 57 48.18 57 73 C49.41 73 41.82 73 34 73 C29.38 61.45 24.76 49.9 20 38 C19.67 49.55 19.34 61.1 19 73 C12.73 73 6.46 73 0 73 C0 48.91 0 24.82 0 0 Z" transform="translate(480,444)"/><path fill="#2551A3" d="M0 0 C1.72669922 -0.04350586 1.72669922 -0.04350586 3.48828125 -0.08789062 C11.63854827 -0.14829739 18.06712324 0.73168972 24.46072388 6.04620361 C26.830372 8.85161132 26.88067468 10.19640852 26.89257812 13.82788086 C26.90518677 14.93260239 26.91779541 16.03732391 26.93078613 17.17552185 C26.92268921 18.36412308 26.91459229 19.5527243 26.90625 20.77734375 C26.9100769 22.00280411 26.91390381 23.22826447 26.91784668 24.49085999 C26.92056861 27.0823753 26.91318795 29.67391795 26.89648438 32.26538086 C26.87509931 36.23158111 26.89626951 40.19596592 26.921875 44.16210938 C26.91923142 46.6796915 26.91410581 49.19727249 26.90625 51.71484375 C26.91434692 52.90142075 26.92244385 54.08799774 26.93078613 55.31053162 C26.83753542 63.50411875 26.83753542 63.50411875 24.55664062 67.49047852 C17.15839568 73.66920524 8.17735699 73.53852128 -0.9375 73.625 C-1.94490234 73.65400391 -2.95230469 73.68300781 -3.99023438 73.71289062 C-11.23748231 73.77426797 -16.72810675 72.72494262 -22.27856445 67.86450195 C-24.81618743 64.93944859 -24.75809793 61.9849402 -24.78613281 58.29370117 C-24.79574036 57.27221481 -24.8053479 56.25072845 -24.81524658 55.19828796 C-24.81949646 54.09515762 -24.82374634 52.99202728 -24.828125 51.85546875 C-24.83382507 50.7197493 -24.83952515 49.58402985 -24.84539795 48.41389465 C-24.85484953 46.00893079 -24.86138256 43.60395396 -24.86523438 41.19897461 C-24.87493401 37.52499712 -24.90595426 33.8515804 -24.9375 30.17773438 C-24.94403072 27.84114916 -24.94928092 25.50455993 -24.953125 23.16796875 C-24.9654718 22.0709111 -24.9778186 20.97385345 -24.99053955 19.84355164 C-24.97435443 14.28361059 -24.90607443 10.04334033 -21.625 5.3125 C-14.52581478 -0.15978861 -8.63648458 0.07110168 0 0 Z" transform="translate(422.625,443.6875)"/><path fill="#2550A2" d="M0 0 C41.08 0 41.08 0 49 6 C51.35285576 9.52928364 51.29915887 12.7706213 51.3125 16.9375 C51.32925781 18.14277344 51.34601563 19.34804688 51.36328125 20.58984375 C50.96915842 24.28951288 50.29404919 26.09900505 48 29 C45.95703125 30.36328125 45.95703125 30.36328125 43.8125 31.3125 C42.73935547 31.80169922 42.73935547 31.80169922 41.64453125 32.30078125 C40.83048828 32.64689453 40.83048828 32.64689453 40 33 C40.54269531 33.24234375 41.08539063 33.4846875 41.64453125 33.734375 C42.35996094 34.06953125 43.07539063 34.4046875 43.8125 34.75 C44.52019531 35.07484375 45.22789062 35.3996875 45.95703125 35.734375 C48.39985314 37.24771017 49.49115208 38.55147717 51 41 C51.40063477 43.63793945 51.40063477 43.63793945 51.44140625 46.61328125 C51.46783203 47.69673828 51.49425781 48.78019531 51.52148438 49.89648438 C51.53501953 51.02376953 51.54855469 52.15105469 51.5625 53.3125 C51.66403988 63.3351738 51.66403988 63.3351738 54 73 C50.37515001 73.08681476 46.75056557 73.14032721 43.125 73.1875 C42.09246094 73.21263672 41.05992187 73.23777344 39.99609375 73.26367188 C38.51689453 73.27817383 38.51689453 73.27817383 37.0078125 73.29296875 C36.09660645 73.3086792 35.18540039 73.32438965 34.24658203 73.34057617 C33.50520996 73.22818604 32.76383789 73.1157959 32 73 C29.00351739 68.50527608 28.87429063 64.35523906 28.68359375 59.04296875 C28.64169922 57.93115234 28.59980469 56.81933594 28.55664062 55.67382812 C28.51732422 54.52333984 28.47800781 53.37285156 28.4375 52.1875 C28.39431641 51.01767578 28.35113281 49.84785156 28.30664062 48.64257812 C28.20081721 45.76182969 28.09873175 42.88099877 28 40 C26.02 39.34 24.04 38.68 22 38 C22 49.55 22 61.1 22 73 C14.74 73 7.48 73 0 73 C0 48.91 0 24.82 0 0 Z" transform="translate(237,444)"/><path fill="#FBFCFD" d="M0 0 C2.5732051 2.33644531 4.43834852 4.87669705 6 8 C6.07199934 10.88573352 6.0927068 13.74065115 6.0625 16.625 C6.041875 19.38875 6.02125 22.1525 6 25 C-0.93 25 -7.86 25 -15 25 C-15.33 19.72 -15.66 14.44 -16 9 C-17.65 9 -19.3 9 -21 9 C-21.52921524 13.56973161 -22.03164466 18.0076141 -19.86328125 22.1953125 C-14.87847532 28.15776802 -8.23664976 32.45579251 -2 37 C-0.63026198 38.04234897 0.72705383 39.10156394 2.0625 40.1875 C2.56910156 40.59355469 3.07570312 40.99960937 3.59765625 41.41796875 C7.76096165 46.11473389 8.47764887 50.93231097 8.375 57 C8.38660156 57.68578125 8.39820313 58.3715625 8.41015625 59.078125 C8.37678258 64.90739192 6.93970354 69.00324635 2.875 73.1875 C-4.01727516 77.53262999 -10.98118323 78.48602977 -19 78.375 C-19.83789062 78.38660156 -20.67578125 78.39820313 -21.5390625 78.41015625 C-28.85225422 78.37619406 -35.39059871 77.28322613 -41 72.375 C-41.66 71.59125 -42.32 70.8075 -43 70 C-43.33 69.67 -43.66 69.34 -44 69 C-44.08713831 67.29227642 -44.10700007 65.58101351 -44.09765625 63.87109375 C-44.09443359 62.83662109 -44.09121094 61.80214844 -44.08789062 60.73632812 C-44.07532227 59.1034082 -44.07532227 59.1034082 -44.0625 57.4375 C-44.05798828 56.34501953 -44.05347656 55.25253906 -44.04882812 54.12695312 C-44.0369984 51.41794568 -44.01906231 48.7089662 -44 46 C-37.4 46 -30.8 46 -24 46 C-23.67 52.27 -23.34 58.54 -23 65 C-20.69 65 -18.38 65 -16 65 C-14.98133603 56.17257858 -14.98133603 56.17257858 -18.1875 48.3125 C-22.36768625 44.31103906 -27.15884049 40.90367368 -31.7890625 37.4375 C-42.19250177 29.61499646 -42.19250177 29.61499646 -44 26 C-44.31621792 22.9242804 -44.324193 19.83998948 -44.375 16.75 C-44.43107422 15.47962891 -44.43107422 15.47962891 -44.48828125 14.18359375 C-44.54864463 9.87096541 -44.43141744 6.93297064 -41.65234375 3.50390625 C-32.62935055 -5.01411826 -10.81793173 -6.47165452 0 0 Z" transform="translate(122,334)"/><path fill="#FBFCFD" d="M0 0 C3.04530184 3.46057027 4.13207532 6.43398254 4.09765625 11.01171875 C4.09515869 11.69451904 4.09266113 12.37731934 4.09008789 13.08081055 C4.08098389 13.94101807 4.07187988 14.80122559 4.0625 15.6875 C4.041875 18.430625 4.02125 21.17375 4 24 C-2.93 24 -9.86 24 -17 24 C-17 18.39 -17 12.78 -17 7 C-18.98 7 -20.96 7 -23 7 C-22.67 26.14 -22.34 45.28 -22 65 C-20.68 65 -19.36 65 -18 65 C-17.67 58.07 -17.34 51.14 -17 44 C-10.07 44 -3.14 44 4 44 C4.1352757 47.7095604 4.2342595 51.41416469 4.3125 55.125 C4.35439453 56.17171875 4.39628906 57.2184375 4.43945312 58.296875 C4.57764225 67.03042739 4.57764225 67.03042739 1.77734375 70.59375 C-7.03904519 78.23214042 -17.99194413 77.69342084 -29 77 C-35.91491385 76.39209549 -40.28861941 74.1600835 -45 69 C-46.32418747 66.35162506 -46.14901853 64.32622278 -46.17700195 61.36035156 C-46.18983719 60.17862366 -46.20267242 58.99689575 -46.21589661 57.77935791 C-46.22328354 56.49607605 -46.23067047 55.21279419 -46.23828125 53.890625 C-46.246353 52.57592224 -46.25442474 51.26121948 -46.26274109 49.90667725 C-46.27777034 47.11910124 -46.28760645 44.33155073 -46.29516602 41.54394531 C-46.30621295 37.98176372 -46.34059129 34.42020984 -46.38033772 30.85824966 C-46.41285342 27.45240031 -46.41728747 24.04661756 -46.42578125 20.640625 C-46.44328934 19.36544006 -46.46079742 18.09025513 -46.47883606 16.77642822 C-46.45181415 5.74497608 -46.45181415 5.74497608 -42 1 C-40 -0.42578125 -40 -0.42578125 -38 -1.3125 C-37.34 -1.61800781 -36.68 -1.92351562 -36 -2.23828125 C-25.60474819 -6.19741036 -9.49646214 -5.91702641 0 0 Z" transform="translate(413,335)"/><path fill="#2651A3" d="M0 0 C9.57 0 19.14 0 29 0 C32.69828294 14.61702304 36.25933929 29.24876244 39.609375 43.94921875 C40.46734358 47.7090356 41.34728312 51.46150829 42.265625 55.20703125 C42.45495605 55.9844165 42.64428711 56.76180176 42.83935547 57.56274414 C43.33324833 59.57951084 43.83426539 61.59452931 44.3359375 63.609375 C45 67 45 67 45 73 C37.74 73 30.48 73 23 73 C22.505 70.4425 22.01 67.885 21.5 65.25 C21.34337891 64.45110352 21.18675781 63.65220703 21.02539062 62.82910156 C20.38469749 59.46461514 20 56.4380842 20 53 C16.37 53 12.74 53 9 53 C8.86722656 54.10859375 8.73445313 55.2171875 8.59765625 56.359375 C8.41940243 57.8229327 8.24100972 59.28647349 8.0625 60.75 C7.97548828 61.47960937 7.88847656 62.20921875 7.79882812 62.9609375 C7.37744388 66.39443878 6.84064882 69.63740472 6 73 C-1.26 73 -8.52 73 -16 73 C-15.37608139 66.76081386 -14.84367359 61.62887196 -13.36328125 55.71875 C-13.20321594 55.07020554 -13.04315063 54.42166107 -12.87823486 53.75346375 C-12.53761603 52.37619272 -12.1939704 50.99966705 -11.84744263 49.62387085 C-10.93173404 45.98825335 -10.03809069 42.34718617 -9.140625 38.70703125 C-8.95959732 37.97567459 -8.77856964 37.24431793 -8.59205627 36.49079895 C-6.11499886 26.46226837 -3.82830241 16.38956068 -1.53735352 6.31713867 C-1.0477703 4.20599177 -0.52561633 2.10246533 0 0 Z" transform="translate(161,444)"/><path fill="#2752A3" d="M0 0 C1.62808594 -0.0299707 1.62808594 -0.0299707 3.2890625 -0.06054688 C10.04102407 -0.0564696 15.97505046 0.45045384 21.625 4.4375 C25.06054414 9.00513773 25.00400361 13.33854721 24.8125 18.8125 C24.7196875 22.586875 24.7196875 22.586875 24.625 26.4375 C17.695 26.4375 10.765 26.4375 3.625 26.4375 C3.295 21.1575 2.965 15.8775 2.625 10.4375 C1.305 10.4375 -0.015 10.4375 -1.375 10.4375 C-1.375 27.5975 -1.375 44.7575 -1.375 62.4375 C0.275 62.7675 1.925 63.0975 3.625 63.4375 C3.625 56.8375 3.625 50.2375 3.625 43.4375 C10.555 43.4375 17.485 43.4375 24.625 43.4375 C24.7075 46.799375 24.79 50.16125 24.875 53.625 C24.91141602 54.67582764 24.94783203 55.72665527 24.98535156 56.80932617 C25.03287442 60.8062281 24.96657177 63.71885602 23.234375 67.36328125 C15.98227137 73.12805225 8.14188836 74.10205533 -0.875 74 C-2.32712891 74.03577148 -2.32712891 74.03577148 -3.80859375 74.07226562 C-10.89763911 74.05799238 -16.49535064 72.49971086 -22.375 68.4375 C-24.60388679 65.09416982 -24.63852341 63.96043006 -24.68139648 60.05151367 C-24.69738388 58.94994431 -24.71337128 57.84837494 -24.72984314 56.71342468 C-24.73520584 55.52279922 -24.74056854 54.33217377 -24.74609375 53.10546875 C-24.75512222 51.88096512 -24.7641507 50.65646149 -24.77345276 49.39485168 C-24.787973 46.80158947 -24.79684638 44.20829047 -24.80053711 41.61499023 C-24.81242235 37.6508997 -24.86158577 33.68837074 -24.91210938 29.72460938 C-24.92157457 27.20573677 -24.92880914 24.68685459 -24.93359375 22.16796875 C-24.95312607 20.98341599 -24.97265839 19.79886322 -24.99278259 18.57841492 C-24.94253739 9.39345017 -24.94253739 9.39345017 -22.0300293 5.75732422 C-15.21564861 -0.19672133 -8.71844593 -0.05654652 0 0 Z" transform="translate(90.375,443.5625)"/><path fill="#FEFEFE" d="M0 0 C13.86 0 27.72 0 42 0 C42 3.3 42 6.6 42 10 C35.4 10 28.8 10 22 10 C22 17.26 22 24.52 22 32 C27.94 32 33.88 32 40 32 C40 34.97 40 37.94 40 41 C34.06 41 28.12 41 22 41 C22 53.54 22 66.08 22 79 C14.74 79 7.48 79 0 79 C0 52.93 0 26.86 0 0 Z" transform="translate(268,332)"/><path fill="#2450A2" d="M0 0 C15.84 0 31.68 0 48 0 C48 2.97 48 5.94 48 9 C43.71 9 39.42 9 35 9 C35 30.12 35 51.24 35 73 C27.74 73 20.48 73 13 73 C13 52.21 13 31.42 13 10 C8.71 10 4.42 10 0 10 C0 6.7 0 3.4 0 0 Z" transform="translate(320,444)"/><path fill="#FFF" d="M0 0 C7.59 0 15.18 0 23 0 C23 26.4 23 52.8 23 80 C15.41 80 7.82 80 0 80 C0 53.6 0 27.2 0 0 Z" transform="translate(187,331)"/><path fill="#28489A" d="M0 0 C3.84814106 3.09989141 7.7041471 7.03440921 9.25 11.8125 C9.72964981 17.66422774 9.21008977 21.58300806 6.25 26.8125 C2.9431444 30.31387651 -1.00681413 33.42206504 -5.86328125 34.11328125 C-11.15701218 34.14148941 -15.05650166 33.5202875 -19.75 30.8125 C-23.93707266 26.62542734 -26.69243379 22.74139413 -26.78125 16.6796875 C-26.42480736 11.4221585 -25.43604081 6.73134338 -21.75 2.8125 C-14.56831594 -2.40584597 -8.1470875 -3.51806051 0 0 Z" transform="translate(298.75,42.1875)"/><path fill="#28489A" d="M0 0 C4.2923264 3.11404072 6.51820475 6.30461425 8.1875 11.3125 C8.72320806 15.92310212 8.66084402 19.36581196 6.5625 23.5625 C1.31743911 29.6357284 -3.21978519 32.71714808 -11.1875 33.75 C-17.2261024 33.02120316 -21.03324793 30.04727077 -25.3125 25.875 C-27.89419573 19.74347265 -28.39129513 12.220665 -25.859375 5.953125 C-19.78133718 -3.04852595 -9.3891076 -4.85643497 0 0 Z" transform="translate(342.8125,245.6875)"/><path fill="#28489A" d="M0 0 C4.75178615 2.833308 8.32785808 6.03462241 10.83984375 11.05859375 C11.36763642 17.27030745 11.58388018 22.81694275 7.83984375 28.05859375 C3.76942308 31.9520396 0.30241404 35.01203818 -5.484375 35.08984375 C-11.05896322 34.75653504 -14.90763929 33.91552774 -19.16015625 30.05859375 C-23.3252765 25.2747819 -24.99683743 20.88061507 -24.64453125 14.51953125 C-23.51782711 8.79514733 -20.55622626 5.14752836 -16.03515625 1.62109375 C-10.86685677 -1.18776466 -5.53245369 -2.41106933 0 0 Z" transform="translate(383.16015625,243.94140625)"/><path fill="#FDF2F3" d="M0 0 C2.375 0.25 2.375 0.25 5 1 C7.55843104 4.51331131 7.28922753 8.38306634 7.2746582 12.55078125 C7.27976913 13.30571869 7.28488007 14.06065613 7.29014587 14.83847046 C7.3040277 17.32989463 7.30308641 19.82104179 7.30078125 22.3125 C7.30466851 24.04598086 7.30900325 25.77946078 7.31376648 27.51293945 C7.32122532 31.14439992 7.32093953 34.77576315 7.31567383 38.40722656 C7.30987483 43.061276 7.32682206 47.71492803 7.3500185 52.36891174 C7.36474698 55.94798103 7.36562884 59.52695436 7.36250877 63.10604858 C7.36302227 64.82206002 7.36826543 66.53807679 7.37832069 68.25405884 C7.39065297 70.6527088 7.38391359 73.0505813 7.37231445 75.44921875 C7.37995819 76.15791107 7.38760193 76.86660339 7.39547729 77.59677124 C7.3626538 80.66662837 7.14460234 82.74067308 5.6368866 85.44458008 C4 87 4 87 1.4375 87.4375 C0.633125 87.293125 -0.17125 87.14875 -1 87 C-3.43930486 83.34104271 -3.28899582 80.6096227 -3.2746582 76.37915039 C-3.2823246 75.21770256 -3.2823246 75.21770256 -3.29014587 74.03279114 C-3.3040559 71.47100107 -3.30308406 68.90947961 -3.30078125 66.34765625 C-3.30466743 64.56790568 -3.30900194 62.78815603 -3.31376648 61.00840759 C-3.32123173 57.27681472 -3.32093522 53.54531646 -3.31567383 49.8137207 C-3.30987898 45.03073115 -3.326809 40.24812881 -3.3500185 35.46520329 C-3.36474743 31.78919712 -3.36562869 28.11328439 -3.36250877 24.43725395 C-3.36302242 22.67379426 -3.36826822 20.91032939 -3.37832069 19.14689827 C-3.39065155 16.68109066 -3.38391394 14.21603955 -3.37231445 11.75024414 C-3.37995819 11.0212793 -3.38760193 10.29231445 -3.39547729 9.54125977 C-3.35252439 5.41213765 -2.92304184 2.99999976 0 0 Z" transform="translate(123,118)"/><path fill="#FEFCFC" d="M0 0 C3.5625 0.25 3.5625 0.25 7 1 C8.29785903 3.59571805 8.14126772 5.50510173 8.16113281 8.41186523 C8.17074036 9.54321396 8.1803479 10.67456268 8.19024658 11.8401947 C8.19449646 13.06726639 8.19874634 14.29433807 8.203125 15.55859375 C8.20882507 16.81382339 8.21452515 18.06905304 8.22039795 19.36231995 C8.22985771 22.02128733 8.23674972 24.68014156 8.24023438 27.33911133 C8.24572275 30.74678183 8.26975869 34.15405347 8.29820633 37.56159878 C8.32130299 40.81056704 8.32328018 44.05955486 8.328125 47.30859375 C8.3404718 48.5336412 8.3528186 49.75868866 8.36553955 51.02085876 C8.36253845 52.15535965 8.35953735 53.28986053 8.35644531 54.45874023 C8.36009094 55.45864487 8.36373657 56.4585495 8.36749268 57.48875427 C8 60 8 60 6.63787842 61.85804749 C5 63 5 63 2.4375 62.8125 C0 62 0 62 -2 60 C-2.25396729 57.57104492 -2.25396729 57.57104492 -2.25878906 54.48046875 C-2.26509338 53.32587158 -2.27139771 52.17127441 -2.27789307 50.98168945 C-2.2738446 49.72960693 -2.26979614 48.47752441 -2.265625 47.1875 C-2.26753845 45.90770264 -2.2694519 44.62790527 -2.27142334 43.30932617 C-2.27437382 40.59907207 -2.27007955 37.88894973 -2.26074219 35.17871094 C-2.24934753 31.70150769 -2.25590743 28.22461318 -2.26788712 24.74742126 C-2.27684425 21.43575596 -2.27057635 18.12417409 -2.265625 14.8125 C-2.26967346 13.56041748 -2.27372192 12.30833496 -2.27789307 11.01831055 C-2.27158875 9.86371338 -2.26528442 8.70911621 -2.25878906 7.51953125 C-2.25719788 6.49964111 -2.25560669 5.47975098 -2.25396729 4.42895508 C-2 2 -2 2 0 0 Z" transform="translate(291,117)"/><path fill="#314F9E" d="M0 0 C3 0.125 3 0.125 4 1.125 C4.09370624 2.90491924 4.11744271 4.68856739 4.11352539 6.47094727 C4.11344986 7.6120546 4.11337433 8.75316193 4.11329651 9.92884827 C4.10813522 11.1704924 4.10297394 12.41213654 4.09765625 13.69140625 C4.0962413 14.95516586 4.09482635 16.21892548 4.09336853 17.52098083 C4.08870582 20.88624889 4.0797148 24.2514499 4.06866455 27.61669922 C4.05844846 31.0484967 4.05387049 34.48030109 4.04882812 37.91210938 C4.0377738 44.64975824 4.0210171 51.38737525 4 58.125 C1.6739143 58.50563221 -0.66055264 58.83769945 -3 59.125 C-4.7182309 57.4067691 -4.12754321 55.13902251 -4.12939453 52.79492188 C-4.13254669 51.65704224 -4.13569885 50.5191626 -4.13894653 49.34680176 C-4.1369223 48.10829468 -4.13489807 46.8697876 -4.1328125 45.59375 C-4.13376923 44.33236206 -4.13472595 43.07097412 -4.13571167 41.7713623 C-4.13639375 39.09802862 -4.13503529 36.42478563 -4.13037109 33.75146484 C-4.12467381 30.31793309 -4.12795301 26.8844795 -4.13394356 23.45095062 C-4.13841762 20.18604757 -4.13528883 16.92115407 -4.1328125 13.65625 C-4.13483673 12.41774292 -4.13686096 11.17923584 -4.13894653 9.90319824 C-4.13579437 8.7653186 -4.13264221 7.62743896 -4.12939453 6.45507812 C-4.12859894 5.44771606 -4.12780334 4.440354 -4.12698364 3.40246582 C-3.93263641 -0.08317343 -3.55797735 0.14824906 0 0 Z" transform="translate(501,341.875)"/><path fill="#FEFEFE" d="M0 0 C2.31 0 4.62 0 7 0 C7 17.49 7 34.98 7 53 C5.02 53 3.04 53 1 53 C0 52 0 52 -0.12025452 49.90562439 C-0.1169236 48.52329369 -0.1169236 48.52329369 -0.11352539 47.11303711 C-0.11344986 46.07203354 -0.11337433 45.03102997 -0.11329651 43.95848083 C-0.10813522 42.8262056 -0.10297394 41.69393036 -0.09765625 40.52734375 C-0.0962413 39.37456436 -0.09482635 38.22178497 -0.09336853 37.03407288 C-0.08775005 33.33518936 -0.07519442 29.63636536 -0.0625 25.9375 C-0.05748738 23.43684983 -0.05292406 20.93619871 -0.04882812 18.43554688 C-0.03777462 12.29034412 -0.02101852 6.14517631 0 0 Z" transform="translate(420,454)"/><path fill="#4661A8" d="M0 0 C3.56295812 -0.08104454 7.12406707 -0.14052442 10.6875 -0.1875 C11.69490234 -0.21263672 12.70230469 -0.23777344 13.74023438 -0.26367188 C23.17518378 -0.35708722 23.17518378 -0.35708722 27 3 C29.50068126 5.46262741 29.96563841 6.66497449 30.328125 10.19921875 C30.30234375 11.35035156 30.2765625 12.50148438 30.25 13.6875 C30.23453125 14.84636719 30.2190625 16.00523437 30.203125 17.19921875 C30 20 30 20 29 21 C25.5 21.125 25.5 21.125 22 21 C21 20 21 20 20.88647461 18.14233398 C20.89171143 17.35157471 20.89694824 16.56081543 20.90234375 15.74609375 C20.90484131 14.9770874 20.90733887 14.20808105 20.90991211 13.41577148 C20.91901611 12.43294189 20.92812012 11.4501123 20.9375 10.4375 C20.958125 7.323125 20.97875 4.20875 21 1 C14.4 1 7.8 1 1 1 C1 7.6 1 14.2 1 21 C0.67 21 0.34 21 0 21 C0 14.07 0 7.14 0 0 Z" transform="translate(77,379)"/><path fill="#FAFBFD" d="M0 0 C1.65 0 3.3 0 5 0 C7.49210439 2.49210439 7.26015661 4.00360788 7.2734375 7.41015625 C7.26570313 8.09980469 7.25796875 8.78945313 7.25 9.5 C7.25773437 10.18964844 7.26546875 10.87929688 7.2734375 11.58984375 C7.25333293 16.74666707 7.25333293 16.74666707 5 19 C3.35 19 1.7 19 0 19 C0 12.73 0 6.46 0 0 Z" transform="translate(259,454)"/><path fill="#F3F5FA" d="M0 0 C0.33 0 0.66 0 1 0 C1.33868777 2.20751848 1.67071689 4.41605911 2 6.625 C2.185625 7.85476563 2.37125 9.08453125 2.5625 10.3515625 C2.95402516 13.6166027 3.08080924 16.71712451 3 20 C1.35 20 -0.3 20 -2 20 C-2.26404456 13.13484138 -1.25841946 6.74153283 0 0 Z" transform="translate(175,467)"/></svg>